<svg width="281" height="23" viewBox="0 0 281 23" fill="none" xmlns="http://www.w3.org/2000/svg">
<path d="M9.86 2.75H17.69V6.29H9.86C5.96 6.29 4.25 8.24 4.25 12.89C4.25 17.51 5.93 19.46 9.86 19.46H17.69V23H9.86C3.95 23 0.71 19.67 0.71 12.89C0.71 6.08 3.98 2.75 9.86 2.75ZM27.8492 7.16H31.1792C35.3792 7.16 38.0492 9.74 38.0492 15.08C38.0492 20.42 35.3792 23 31.1792 23H27.8492C23.6192 23 20.9792 20.42 20.9792 15.08C20.9792 9.74 23.6192 7.16 27.8492 7.16ZM30.8792 10.22H28.1492C25.3892 10.22 24.1892 11.66 24.1892 15.08C24.1892 18.5 25.3892 19.91 28.1492 19.91H30.8792C33.6092 19.91 34.8392 18.5 34.8392 15.08C34.8392 11.66 33.6092 10.22 30.8792 10.22ZM46.2662 7.16H55.0562V10.22H46.2962C44.8262 10.22 44.2262 10.82 44.2262 12.02C44.2262 13.13 44.7062 13.73 46.4762 13.73H50.1962C54.5762 13.73 55.6862 15.74 55.6862 18.2C55.6862 21.02 54.2162 23 50.4962 23H41.2862V19.91H50.4962C51.9662 19.91 52.5662 19.4 52.5662 18.17C52.5662 16.91 51.9062 16.4 50.3162 16.4H46.5662C42.1862 16.4 41.1062 14.21 41.1062 11.78C41.1062 8.93 42.5762 7.16 46.2662 7.16ZM61.6543 7.16H77.9443C83.3143 7.16 85.9543 9.71 85.9543 14.09V23H82.7443V14.09C82.7443 11.6 81.3043 10.22 77.9743 10.22H74.2543V23H71.0443V10.22H63.0043C62.7343 10.22 62.6143 10.37 62.6143 10.67V23H59.4343V9.62C59.4343 7.76 60.0643 7.16 61.6543 7.16ZM90.4011 7.16H93.5811V23H90.4011V7.16ZM90.4011 1.19H93.6111V4.88H90.4011V1.19ZM104.255 7.16H112.415V10.22H104.555C101.795 10.22 100.595 11.66 100.595 15.08C100.595 18.5 101.795 19.91 104.555 19.91H112.415V23H104.255C100.025 23 97.3855 20.42 97.3855 15.08C97.3855 9.74 100.025 7.16 104.255 7.16ZM124.762 2.75H132.592V6.29H124.762C120.862 6.29 119.152 8.24 119.152 12.89C119.152 17.51 120.832 19.46 124.762 19.46H132.592V23H124.762C118.852 23 115.612 19.67 115.612 12.89C115.612 6.08 118.882 2.75 124.762 2.75ZM136.632 0.289999H139.812V23H136.632V0.289999ZM144.996 7.16H154.506C158.466 7.16 160.026 9.38 160.026 12.38V19.82C160.026 22.1 159.426 23 156.756 23H149.346C145.596 23 144.036 21.17 144.036 18.17C144.036 15.29 145.476 13.61 149.376 13.61H156.906V12.41C156.906 11.18 156.216 10.22 154.476 10.22H144.996V7.16ZM156.036 19.91C156.666 19.91 156.906 19.67 156.906 19.1V16.13H149.436C147.756 16.13 147.156 16.82 147.156 17.99C147.156 19.16 147.786 19.91 149.376 19.91H156.036ZM168.932 7.16H177.722V10.22H168.962C167.492 10.22 166.892 10.82 166.892 12.02C166.892 13.13 167.372 13.73 169.142 13.73H172.862C177.242 13.73 178.352 15.74 178.352 18.2C178.352 21.02 176.882 23 173.162 23H163.952V19.91H173.162C174.632 19.91 175.232 19.4 175.232 18.17C175.232 16.91 174.572 16.4 172.982 16.4H169.232C164.852 16.4 163.772 14.21 163.772 11.78C163.772 8.93 165.242 7.16 168.932 7.16ZM186.51 7.16H195.3V10.22H186.54C185.07 10.22 184.47 10.82 184.47 12.02C184.47 13.13 184.95 13.73 186.72 13.73H190.44C194.82 13.73 195.93 15.74 195.93 18.2C195.93 21.02 194.46 23 190.74 23H181.53V19.91H190.74C192.21 19.91 192.81 19.4 192.81 18.17C192.81 16.91 192.15 16.4 190.56 16.4H186.81C182.43 16.4 181.35 14.21 181.35 11.78C181.35 8.93 182.82 7.16 186.51 7.16ZM203.938 7.16H210.448V10.22H204.868C203.458 10.22 202.828 10.88 202.828 12.26V23H199.648V11.78C199.648 8.6 200.818 7.16 203.938 7.16ZM219.685 7.16H223.015C227.215 7.16 229.885 9.74 229.885 15.08C229.885 20.42 227.215 23 223.015 23H219.685C215.455 23 212.815 20.42 212.815 15.08C212.815 9.74 215.455 7.16 219.685 7.16ZM222.715 10.22H219.985C217.225 10.22 216.025 11.66 216.025 15.08C216.025 18.5 217.225 19.91 219.985 19.91H222.715C225.445 19.91 226.675 18.5 226.675 15.08C226.675 11.66 225.445 10.22 222.715 10.22ZM239.812 7.16H243.142C247.342 7.16 250.012 9.74 250.012 15.08C250.012 20.42 247.342 23 243.142 23H239.812C235.582 23 232.942 20.42 232.942 15.08C232.942 9.74 235.582 7.16 239.812 7.16ZM242.842 10.22H240.112C237.352 10.22 236.152 11.66 236.152 15.08C236.152 18.5 237.352 19.91 240.112 19.91H242.842C245.572 19.91 246.802 18.5 246.802 15.08C246.802 11.66 245.572 10.22 242.842 10.22ZM256.039 7.16H272.329C277.699 7.16 280.339 9.71 280.339 14.09V23H277.129V14.09C277.129 11.6 275.689 10.22 272.359 10.22H268.639V23H265.429V10.22H257.389C257.119 10.22 256.999 10.37 256.999 10.67V23H253.819V9.62C253.819 7.76 254.449 7.16 256.039 7.16Z" fill="white"/>
</svg>
